<?xml version="1.0" encoding="utf-8"?>
<!-- Generator: Adobe Illustrator 19.0.0, SVG Export Plug-In . SVG Version: 6.00 Build 0)  -->
<svg version="1.1" id="Layer_1" xmlns="http://www.w3.org/2000/svg" xmlns:xlink="http://www.w3.org/1999/xlink" x="0px" y="0px"
	 viewBox="0 0 272.5 273" style="enable-background:new 0 0 272.5 273;" xml:space="preserve">
<style type="text/css">
	.st0{opacity:0.8;}
	.st1{fill:url(#XMLID_21_);}
	.st2{opacity:0.8;}
	.st3{fill:url(#XMLID_22_);}
	.st4{fill:#FFFFFF;}
</style>
<g id="XMLID_2061_">
	<g id="XMLID_2067_" class="st0">
		<g id="XMLID_125_">
			<linearGradient id="XMLID_21_" gradientUnits="userSpaceOnUse" x1="261.5125" y1="133.6351" x2="12.7917" y2="133.6351">
				<stop  offset="0" style="stop-color:#00FFFF;stop-opacity:0.9"/>
				<stop  offset="1" style="stop-color:#06D0FF;stop-opacity:0.9"/>
			</linearGradient>
			<path id="XMLID_126_" class="st1" d="M255,146.5c3.5,8.9,4.8,18.2,5.9,27.5c4,32.8-12.3,58.4-44.5,69.9
				c-35.8,12.7-72.8,11.7-110.1,9.9c-20.6-1-39.6-6.3-58.1-15c-26.8-12.6-41.1-41.9-33.5-73.3c12-49,35.9-91.7,71.1-127.4
				c34-34.5,70.2-33.8,104.3,0.9C220.5,69.5,239.8,106.8,255,146.5z"/>
		</g>
	</g>
	<path id="XMLID_2062_" class="st4" d="M121,203.9c0.8-5,1.3-10.7,1.3-17.6c0-15.3-2.7-34.3-8.2-57.2c-2.5-10.9-4.8-18.2-6.7-22
		c-1.9-3.8-4.8-7.1-8.8-9.6c4.6-5,8.4-7.3,11.5-7.3c5.7,0,11.3,9.2,16.3,27.9c6.9,24.3,10.3,46.9,10.3,67.9
		c28.7-38.3,43.1-64.5,43.1-78.7c0-2.1-0.6-4-1.7-5.9c3.8-2.5,7.7-4,11.7-4c3.6,0,5.4,1.7,5.4,5.2c0,6.1-4,15.9-11.7,29.7
		c-7.7,13.8-18.6,29.9-32.7,48.2c-7.3,9.6-12.4,15.5-15.5,17.8C132.8,201,127.8,202.6,121,203.9z"/>
</g>
</svg>
